<svg width="722" height="638" viewBox="0 0 722 638" fill="none" xmlns="http://www.w3.org/2000/svg">
<path opacity="0.15" d="M497.381 3.11854e-07C452.491 -0.0378662 411.707 17.4565 381.445 46.0078C361.933 64.4109 335.211 73.5178 308.659 69.6933C297.928 68.1408 286.876 67.5917 275.577 68.1787C187.915 72.6469 117.722 144.839 115.526 232.614C115.261 243.292 115.981 253.762 117.627 263.911C123.702 301.645 114.75 340.42 90.9803 370.372C69.2541 397.75 56.0632 432.19 55.4197 469.696C53.8678 559.648 126.03 635.003 215.925 637.123C308.602 639.3 384.397 564.798 384.397 472.593C384.397 464.812 383.849 457.162 382.808 449.684C377.641 412.575 388.826 374.822 413.088 346.289C419.087 339.227 424.519 331.673 429.307 323.683C450.106 332.828 473.062 337.959 497.249 337.959C591.894 337.959 668.371 260.086 666.119 164.871C663.961 73.7261 588.525 0.0568001 497.381 3.11854e-07Z" fill="#57FFB4"/>
<path d="M604.404 468.484C601.906 468.087 600.202 465.72 600.619 463.221C601.016 460.722 603.382 459.018 605.88 459.434C608.378 459.832 610.081 462.199 609.665 464.698C609.249 467.197 606.902 468.882 604.404 468.484Z" fill="#57FFB4"/>
<path d="M394.125 128.898C390.548 128.311 388.126 124.941 388.694 121.381C389.28 117.803 392.649 115.379 396.207 115.947C399.784 116.534 402.206 119.904 401.638 123.464C401.052 127.042 397.683 129.466 394.125 128.898Z" fill="white"/>
<path d="M5.51392 352.31C1.93705 351.723 -0.485385 348.353 0.0823733 344.794C0.669056 341.215 4.03775 338.792 7.5957 339.36C11.1726 339.947 13.595 343.317 13.0272 346.876C12.4595 350.455 9.0908 352.878 5.51392 352.31Z" fill="white"/>
<path d="M63.8227 456.159C98.461 456.159 126.541 428.067 126.541 393.414C126.541 358.761 98.461 330.669 63.8227 330.669C29.1843 330.669 1.10437 358.761 1.10437 393.414C1.10437 428.067 29.1843 456.159 63.8227 456.159Z" fill="url(#paint0_linear_55_1777)"/>
<path d="M524.539 526.079C520.546 548.269 499.331 563.018 477.15 559.004C454.97 555.01 440.227 533.785 444.239 511.596C448.232 489.406 469.448 474.657 491.628 478.671C513.789 482.666 528.532 503.89 524.539 526.079Z" fill="url(#paint1_linear_55_1777)"/>
<path d="M551.621 121.779C547.363 121.457 543.086 121.211 538.771 121.192H537.692C514.963 121.192 492.801 125.414 471.813 133.745C471.075 134.029 470.337 134.294 469.599 134.559" stroke="#57FFB4" stroke-width="3" stroke-miterlimit="10" stroke-linecap="round" stroke-linejoin="round"/>
<path d="M551.621 121.779C547.363 121.457 543.086 121.211 538.771 121.192H537.692C514.963 121.192 492.801 125.414 471.813 133.745C471.075 134.029 470.337 134.294 469.599 134.559" stroke="white" stroke-width="3" stroke-miterlimit="10" stroke-linecap="round" stroke-linejoin="round"/>
<path d="M689.568 205.729C682.13 193.877 673.254 182.782 663.016 172.728C641.346 151.428 615.248 136.301 586.936 128.159" stroke="#57FFB4" stroke-width="3" stroke-miterlimit="10" stroke-linecap="round" stroke-linejoin="round"/>
<path d="M689.568 205.729C682.13 193.877 673.254 182.782 663.016 172.728C641.346 151.428 615.248 136.301 586.936 128.159" stroke="white" stroke-width="3" stroke-miterlimit="10" stroke-linecap="round" stroke-linejoin="round"/>
<path d="M688.905 396.311C707.792 366.68 717.52 332.146 716.687 296.097C716.12 271.048 710.291 246.833 699.882 224.643" stroke="#333FBB" stroke-width="3" stroke-miterlimit="10" stroke-linecap="round" stroke-linejoin="round"/>
<path d="M138.596 424.086C138.142 424.862 137.65 425.639 137.082 426.358C122.51 445.443 115.299 469.204 116.757 493.306C119.823 543.971 161.969 585.208 212.689 587.177C214.033 587.234 215.357 587.253 216.682 587.253C255.819 587.253 291.588 564.211 307.807 528.579C310.362 522.974 315.642 519.491 321.679 519.491H322.815C342.781 519.491 362.444 516.556 381.256 510.895" stroke="#57FFB4" stroke-width="3" stroke-miterlimit="10" stroke-linecap="round" stroke-linejoin="round"/>
<path d="M189.505 78.6109C179.664 76.32 169.482 75.1272 159.13 75.1272C157.011 75.1272 154.853 75.184 152.734 75.2786C120.068 76.8122 89.1636 90.4252 65.7152 113.618C42.2478 136.812 28.281 167.578 26.3695 200.219C26.01 206.316 26.0857 212.374 26.5209 218.319" stroke="#57FFB4" stroke-width="3" stroke-miterlimit="10" stroke-linecap="round" stroke-linejoin="round"/>
<path d="M538.657 138.232C517.253 138.099 496.814 142.151 478.078 149.573C452.793 159.607 424.368 159.323 399.613 148.02C376.222 137.361 350.219 131.397 322.815 131.397C313.712 131.397 304.76 132.059 295.998 133.328C272.152 136.793 248.192 130.147 228.983 115.606C208.184 99.854 181.897 90.9743 153.509 92.2996C94.6897 95.0639 46.7709 142.416 43.3455 201.223C40.6202 247.95 65.5637 289.092 103.301 309.862C123.115 320.767 137.328 339.398 142.722 361.36C145.693 373.421 149.838 385.027 155.023 396.027C161.307 409.337 159.528 425.033 150.595 436.714C138.956 451.956 132.465 471.343 133.733 492.284C136.287 534.581 171.015 568.509 213.332 570.175C248.363 571.538 278.795 551.204 292.288 521.535C297.587 509.91 308.98 502.394 321.755 502.47C322.096 502.47 322.455 502.47 322.815 502.47C359.719 502.47 394.106 491.678 422.986 473.085C446.851 457.73 475.939 452.883 503.702 458.81C514.66 461.157 526.015 462.388 537.654 462.388C628.401 462.388 701.717 387.753 699.617 296.514C697.667 209.345 625.789 138.743 538.657 138.232Z" fill="url(#paint2_linear_55_1777)"/>
<path d="M584.245 469.246C585.723 454.271 574.788 440.932 559.819 439.453C544.851 437.974 531.518 448.914 530.039 463.889C528.561 478.864 539.497 492.202 554.465 493.682C569.433 495.161 582.766 484.22 584.245 469.246Z" stroke="#57FFB4" stroke-width="3" stroke-miterlimit="10"/>
<path d="M73.2431 334.203C74.7216 319.229 63.7858 305.89 48.8174 304.411C33.849 302.932 20.5161 313.872 19.0376 328.847C17.5592 343.822 28.4949 357.16 43.4633 358.639C58.4317 360.119 71.7646 349.178 73.2431 334.203Z" stroke="#333FBB" stroke-width="3" stroke-miterlimit="10" stroke-linecap="round" stroke-linejoin="round"/>
<path d="M374.348 143.249C374.348 171.573 351.392 194.52 323.099 194.52C294.787 194.52 271.849 171.554 271.849 143.249C271.849 114.925 294.805 91.9777 323.099 91.9777C351.392 91.9588 374.348 114.925 374.348 143.249Z" stroke="white" stroke-width="3" stroke-linecap="round" stroke-linejoin="round"/>
<defs>
<linearGradient id="paint0_linear_55_1777" x1="37.482" y1="404.451" x2="662.001" y2="142.862" gradientUnits="userSpaceOnUse">
<stop stop-color="#57FFB4"/>
<stop offset="0.2573" stop-color="#4DBBB5"/>
<stop offset="0.5147" stop-color="#437EB5"/>
<stop offset="0.7328" stop-color="#3D51B6"/>
<stop offset="0.9014" stop-color="#3936B6"/>
<stop offset="1" stop-color="#372CB6"/>
</linearGradient>
<linearGradient id="paint1_linear_55_1777" x1="144.991" y1="661.118" x2="769.509" y2="399.53" gradientUnits="userSpaceOnUse">
<stop stop-color="#57FFB4"/>
<stop offset="0.2573" stop-color="#4DBBB5"/>
<stop offset="0.5147" stop-color="#437EB5"/>
<stop offset="0.7328" stop-color="#3D51B6"/>
<stop offset="0.9014" stop-color="#3936B6"/>
<stop offset="1" stop-color="#372CB6"/>
</linearGradient>
<linearGradient id="paint2_linear_55_1777" x1="52.7438" y1="473.505" x2="621.023" y2="105.258" gradientUnits="userSpaceOnUse">
<stop stop-color="#57FFB4"/>
<stop offset="0.2573" stop-color="#4DBBB5"/>
<stop offset="0.5147" stop-color="#437EB5"/>
<stop offset="0.7328" stop-color="#3D51B6"/>
<stop offset="0.9014" stop-color="#3936B6"/>
<stop offset="1" stop-color="#372CB6"/>
</linearGradient>
</defs>
</svg>
